<svg width="16" height="16" viewBox="0 0 16 16" fill="none" xmlns="http://www.w3.org/2000/svg">
<g clip-path="url(#clip0_118_31)">
<path fill-rule="evenodd" clip-rule="evenodd" d="M7.95312 0.628174C8.19688 0.628174 8.54063 0.650049 8.8125 0.684424C9.0625 0.718799 9.43437 0.784424 9.64062 0.828174C9.84688 0.875049 10.1687 0.965674 10.3594 1.0313C10.55 1.09692 10.8313 1.2063 10.9844 1.27505C11.1375 1.3438 11.4 1.47192 11.5625 1.56255C11.725 1.65317 11.9656 1.80005 12.0938 1.88755C12.2219 1.97192 12.4625 2.15317 12.625 2.28442C12.7875 2.41567 13.0781 2.68442 13.2656 2.87817C13.4563 3.07505 13.7031 3.35317 13.8188 3.50005C13.9313 3.64692 14.0875 3.86567 14.1625 3.98442C14.2406 4.10317 14.3781 4.33442 14.4656 4.4938C14.5531 4.65005 14.6875 4.92505 14.7625 5.10005C14.8375 5.27817 14.95 5.58442 15.0125 5.7813C15.075 5.97817 15.1594 6.30317 15.2 6.50005C15.2437 6.69692 15.3 7.05317 15.325 7.29067C15.3531 7.52505 15.375 7.83755 15.375 7.98442C15.375 8.1313 15.3531 8.45005 15.325 8.69692C15.3 8.94067 15.2437 9.30317 15.2031 9.50005C15.1594 9.69692 15.075 10.0219 15.0125 10.2188C14.95 10.4157 14.8375 10.7188 14.7656 10.8907C14.6906 11.0625 14.5562 11.3375 14.4688 11.5C14.3781 11.6625 14.2312 11.9094 14.1438 12.0469C14.0531 12.1844 13.8656 12.4375 13.7281 12.6094C13.5906 12.7813 13.3094 13.0844 13.1062 13.2813C12.9 13.4782 12.5844 13.7532 12.4031 13.8907C12.2188 14.0282 11.9594 14.2063 11.825 14.2844C11.6875 14.3657 11.4937 14.475 11.3906 14.5313C11.2875 14.5844 11.0625 14.6907 10.8906 14.7657C10.7188 14.8375 10.425 14.9469 10.2344 15.0094C10.0437 15.0688 9.75 15.15 9.57812 15.1875C9.40625 15.225 9.0625 15.2813 8.8125 15.3157C8.5625 15.3469 8.19688 15.375 8 15.375C7.80312 15.375 7.4375 15.3469 7.1875 15.3157C6.9375 15.2813 6.59375 15.225 6.42188 15.1844C6.25 15.1469 5.95625 15.0688 5.76562 15.0094C5.575 14.9469 5.27812 14.8375 5.1 14.7625C4.925 14.6875 4.65 14.5532 4.49375 14.4657C4.33438 14.3782 4.09063 14.2313 3.95312 14.1438C3.81562 14.0532 3.5625 13.8657 3.39062 13.7282C3.21875 13.5907 2.92188 13.3157 2.73438 13.1219C2.54375 12.925 2.29688 12.6469 2.18125 12.5C2.06875 12.3532 1.9125 12.1375 1.8375 12.0157C1.75937 11.8938 1.62187 11.6657 1.53437 11.5063C1.44687 11.35 1.3125 11.075 1.2375 10.9C1.1625 10.7219 1.05625 10.4375 1 10.2657C0.946875 10.0938 0.865625 9.8063 0.825 9.62505C0.784375 9.4438 0.721875 9.07192 0.6875 8.79692C0.653125 8.52192 0.625 8.1688 0.625 8.01567C0.625 7.86255 0.646875 7.5438 0.671875 7.31255C0.7 7.0813 0.753125 6.72192 0.796875 6.51567C0.8375 6.30942 0.925 5.97817 0.9875 5.7813C1.05 5.58442 1.16875 5.2688 1.24688 5.07817C1.32813 4.88755 1.48438 4.5813 1.59375 4.39067C1.7 4.20005 1.84688 3.96255 1.91875 3.85942C1.9875 3.7563 2.15312 3.53755 2.28437 3.37505C2.41562 3.21255 2.68438 2.92192 2.87812 2.73442C3.075 2.5438 3.35313 2.29692 3.5 2.1813C3.64687 2.0688 3.86562 1.91255 3.98438 1.83755C4.10313 1.75942 4.33438 1.62192 4.49375 1.53442C4.65 1.44692 4.925 1.31255 5.1 1.23755C5.27812 1.16255 5.58437 1.05005 5.78125 0.987549C5.97813 0.925049 6.28125 0.843799 6.45312 0.806299C6.625 0.771924 6.94063 0.715674 7.15625 0.687549C7.37187 0.656299 7.72813 0.631299 7.95312 0.628174ZM6.5625 1.43755C6.38125 1.47505 6.08125 1.55942 5.89062 1.62505C5.7 1.68755 5.44063 1.78755 5.3125 1.84067C5.18437 1.89692 4.95937 2.0063 4.8125 2.08442C4.66563 2.16255 4.41875 2.31255 4.26562 2.41567C4.1125 2.5188 3.86562 2.70317 3.71875 2.82505C3.57188 2.94692 3.34063 3.15942 3.20625 3.29692C3.07187 3.43442 2.87812 3.64692 2.78125 3.76567C2.68438 3.88442 2.51562 4.1188 2.40625 4.2813C2.29688 4.4438 2.13438 4.7188 2.04375 4.89067C1.95312 5.06255 1.81562 5.36567 1.7375 5.56255C1.65937 5.75942 1.55625 6.08442 1.50312 6.2813C1.45312 6.47817 1.38437 6.80317 1.35312 7.00005C1.3125 7.25942 1.29688 7.53442 1.29688 8.00005C1.29688 8.45317 1.3125 8.74067 1.35312 8.98442C1.38125 9.17505 1.45 9.49692 1.5 9.70317C1.55313 9.90942 1.65937 10.2407 1.7375 10.4375C1.81562 10.6344 1.95312 10.9375 2.04375 11.1094C2.13438 11.2813 2.29688 11.5563 2.40625 11.7188C2.51562 11.8813 2.69062 12.1219 2.79375 12.25C2.9 12.3782 3.125 12.6219 3.29688 12.7938C3.46875 12.9625 3.75312 13.2094 3.925 13.3407C4.1 13.4719 4.39063 13.6657 4.56563 13.7719C4.74375 13.8813 5.04375 14.0375 5.23438 14.1219C5.425 14.2032 5.725 14.3219 5.90625 14.3844C6.0875 14.4438 6.40938 14.5282 6.625 14.5719C6.84062 14.6157 7.19063 14.6688 7.40625 14.6907C7.64375 14.7125 7.975 14.7188 8.25 14.7094C8.5 14.6969 8.85 14.6657 9.03125 14.6375C9.2125 14.6094 9.52188 14.5469 9.71875 14.4938C9.91562 14.4438 10.2406 14.3375 10.4375 14.2594C10.6344 14.1813 10.9375 14.0469 11.1094 13.9563C11.2812 13.8657 11.55 13.7063 11.7031 13.6032C11.8562 13.5 12.0906 13.3313 12.2188 13.2282C12.3469 13.1282 12.5875 12.9125 12.75 12.75C12.9125 12.5875 13.1281 12.3469 13.2281 12.2188C13.3312 12.0907 13.5 11.8563 13.6031 11.7032C13.7062 11.55 13.8656 11.2813 13.9563 11.1094C14.0469 10.9375 14.1844 10.6313 14.2625 10.4313C14.3406 10.2282 14.4469 9.89692 14.5 9.69692C14.55 9.4938 14.6156 9.1813 14.6469 9.00005C14.6844 8.7688 14.7 8.47505 14.7 8.01567C14.7 7.54067 14.6875 7.26567 14.6469 7.01567C14.6188 6.82505 14.55 6.50317 14.5 6.29692C14.4469 6.09067 14.3406 5.75942 14.2625 5.56255C14.1844 5.36567 14.0469 5.06255 13.9563 4.89067C13.8656 4.7188 13.7062 4.45005 13.6031 4.29692C13.5 4.1438 13.3312 3.90942 13.2281 3.7813C13.1281 3.65317 12.9187 3.4188 12.7625 3.26567C12.6094 3.11255 12.3781 2.90005 12.25 2.7938C12.1219 2.69067 11.8813 2.51567 11.7188 2.4063C11.5562 2.29692 11.2812 2.13442 11.1094 2.0438C10.9375 1.95317 10.6344 1.81567 10.4375 1.73755C10.2406 1.65942 9.91562 1.5563 9.71875 1.50317C9.52188 1.45317 9.2125 1.38755 9.03125 1.35942C8.85 1.3313 8.44375 1.30317 8.125 1.29692C7.74687 1.28755 7.43437 1.30005 7.21875 1.32505C7.0375 1.35005 6.74375 1.40005 6.5625 1.43755ZM8.04688 2.25942C8.28438 2.26567 8.35938 2.28442 8.53125 2.36255C8.64688 2.41567 8.80313 2.52505 8.89062 2.61255C8.97812 2.69692 9.0875 2.8438 9.13437 2.93755C9.18125 3.0313 9.23438 3.20005 9.25625 3.31255C9.28438 3.45942 9.28437 3.5688 9.25937 3.70317C9.24375 3.8063 9.19063 3.97192 9.14688 4.07192C9.1 4.1688 8.9875 4.32505 8.89688 4.41567C8.80938 4.5063 8.65625 4.6188 8.5625 4.66567C8.46875 4.70942 8.3 4.76255 8.1875 4.77817C8.05625 4.79692 7.91875 4.79692 7.79688 4.77817C7.69375 4.76255 7.53125 4.70942 7.4375 4.66567C7.34375 4.6188 7.19062 4.5063 7.1 4.41567C7.0125 4.32505 6.9 4.1688 6.85313 4.07192C6.80938 3.97192 6.75625 3.8063 6.74062 3.70317C6.71562 3.5688 6.71563 3.45942 6.74375 3.31255C6.76562 3.20005 6.81875 3.0313 6.86562 2.93755C6.9125 2.8438 7.01562 2.70005 7.09375 2.62192C7.17188 2.5438 7.29688 2.44692 7.375 2.4063C7.45312 2.36567 7.57188 2.31567 7.64062 2.29067C7.71875 2.26567 7.875 2.25317 8.04688 2.25942ZM7.6 3.0188C7.54688 3.05942 7.47188 3.15005 7.4375 3.2188C7.39687 3.29692 7.375 3.4063 7.375 3.51567C7.375 3.62192 7.39687 3.7313 7.43437 3.8063C7.46562 3.8688 7.52812 3.95317 7.56875 3.99067C7.60625 4.02817 7.69375 4.0813 7.75625 4.1063C7.82188 4.13442 7.93125 4.1563 8 4.1563C8.06875 4.1563 8.17813 4.13442 8.24063 4.1063C8.30625 4.0813 8.39375 4.02817 8.43125 3.99067C8.47187 3.95317 8.53438 3.8688 8.56563 3.80317C8.60313 3.7313 8.625 3.62192 8.625 3.51567C8.625 3.4063 8.60313 3.29692 8.5625 3.2188C8.52812 3.15005 8.45313 3.05942 8.39688 3.0188C8.34375 2.97817 8.24687 2.9313 8.1875 2.90942C8.12813 2.89067 8.03438 2.87505 7.98438 2.87817C7.93125 2.87817 7.85 2.8938 7.79688 2.91255C7.74375 2.9313 7.65625 2.97817 7.6 3.0188ZM4.15625 4.62817C4.29688 4.62505 4.54688 4.69692 6.76562 5.43755H9.23438L10.4531 5.0313C11.4531 4.69692 11.7031 4.62505 11.8438 4.62817C11.9375 4.62817 12.0594 4.64692 12.1156 4.66567C12.1688 4.68755 12.275 4.74692 12.35 4.79692C12.4375 4.85942 12.5156 4.95005 12.5719 5.06255C12.6375 5.20005 12.6562 5.27817 12.6562 5.43755C12.6562 5.58442 12.6344 5.68442 12.5813 5.79692C12.5406 5.88442 12.4594 5.99692 12.4031 6.05317C12.3438 6.10942 12.2406 6.17505 12.1719 6.2063C12.1031 6.23442 11.4969 6.45317 10.8281 6.69067C10.1594 6.9313 9.60625 7.12505 9.6 7.12505C9.59688 7.12505 9.59375 7.59692 9.59375 9.2188L10.0031 10.8532C10.3031 12.05 10.4094 12.5313 10.4094 12.6657C10.4062 12.7813 10.3844 12.8907 10.3406 12.9782C10.3031 13.05 10.2375 13.15 10.1906 13.1969C10.1469 13.2469 10.0531 13.3157 9.98438 13.35C9.91562 13.3844 9.7875 13.4219 9.70312 13.4282C9.61563 13.4375 9.49063 13.4282 9.42188 13.4125C9.35312 13.3938 9.2375 13.3344 9.1625 13.2813C9.09063 13.2313 9.00313 13.1407 8.96875 13.0875C8.93437 13.0313 8.70938 12.3907 8.46875 11.6657C8.22813 10.9375 8.01875 10.3438 8 10.3438C7.98125 10.3438 7.77187 10.9375 7.53125 11.6657C7.29063 12.3907 7.06563 13.0313 7.03125 13.0875C6.99687 13.1407 6.90938 13.2313 6.8375 13.2813C6.7625 13.3344 6.64687 13.3938 6.57812 13.4125C6.50938 13.4282 6.38438 13.4375 6.29688 13.4282C6.2125 13.4219 6.08437 13.3844 6.01562 13.35C5.94688 13.3157 5.85312 13.2469 5.80937 13.1969C5.7625 13.15 5.69375 13.0469 5.65625 12.9688C5.60938 12.875 5.5875 12.7688 5.5875 12.6563C5.5875 12.5407 5.71875 11.9625 6.40625 9.2188V7.12505L6.32188 7.09692C6.27187 7.08442 5.69375 6.87817 5.03125 6.64067C4.36875 6.4063 3.7875 6.18755 3.73438 6.1563C3.68125 6.12505 3.60313 6.05942 3.55625 6.00942C3.50938 5.96255 3.44375 5.8563 3.40937 5.77505C3.36562 5.67817 3.34375 5.5563 3.34375 5.4313C3.34063 5.27505 3.35938 5.19692 3.42812 5.06255C3.48438 4.95005 3.55938 4.85942 3.65 4.79692C3.725 4.7438 3.83125 4.68755 3.88438 4.66567C3.94063 4.64692 4.0625 4.62817 4.15625 4.62817ZM4.00625 5.34067C3.98438 5.3688 3.96875 5.4188 3.96875 5.45317C3.96875 5.48755 3.99062 5.53755 4.0125 5.56255C4.0375 5.58755 4.725 5.85005 5.54375 6.14067L7.03125 6.67192V9.3438C6.4 11.875 6.21875 12.6344 6.225 12.6688C6.23125 12.7 6.2625 12.7469 6.29688 12.7688C6.34688 12.8032 6.375 12.8032 6.43437 12.7719C6.5 12.7407 6.58437 12.5125 7.08437 11C7.4 10.0469 7.675 9.20942 7.69688 9.14067C7.725 9.04067 7.75938 9.00317 7.85938 8.9563C7.96562 8.9063 8.00313 8.90317 8.1 8.93442C8.16563 8.95317 8.24062 9.00005 8.26562 9.04067C8.29063 9.07817 8.32188 9.16567 8.33125 9.23442C8.34375 9.30317 8.60625 10.1188 8.91875 11.0469C9.41875 12.5407 9.49375 12.7375 9.5625 12.7719C9.625 12.8032 9.65312 12.8032 9.70312 12.7688C9.7375 12.7469 9.76875 12.7 9.775 12.6688C9.78125 12.6344 9.6 11.875 9.37813 10.9782L8.96875 9.3438V6.67192C11.2281 5.87192 11.9156 5.61567 11.9563 5.58442C12 5.55317 12.0312 5.50005 12.0312 5.45317C12.0312 5.40942 12.0031 5.34692 11.9688 5.31255C11.925 5.2688 11.8812 5.2563 11.8219 5.2688C11.7719 5.27817 11.1844 5.46567 10.5156 5.68755L9.29688 6.0938H6.70312C4.81563 5.4688 4.2375 5.27817 4.20312 5.27192C4.16875 5.26255 4.11875 5.26255 4.09375 5.27192C4.06875 5.2813 4.02812 5.31255 4.00625 5.34067Z" fill="black"/>
</g>
<defs>
<clipPath id="clip0_118_31">
<rect width="16" height="16" fill="white"/>
</clipPath>
</defs>
</svg>
