<svg width="32" height="32" viewBox="0 0 32 32" fill="none" xmlns="http://www.w3.org/2000/svg">
<path d="M17.1961 29.2907C16.4884 29.2927 15.8094 29.0113 15.3107 28.5093L4.86139 18.0626C4.31002 17.5131 4.02735 16.7494 4.08806 15.9733L4.75472 7.21865C4.84995 5.90088 5.90061 4.8542 7.21872 4.76398L15.9734 4.09731C16.0427 4.08264 16.1107 4.08264 16.1801 4.08264C16.8863 4.0818 17.5636 4.36308 18.0614 4.86398L28.5107 15.3093C29.0111 15.8094 29.2922 16.4879 29.2922 17.1953C29.2922 17.9027 29.0111 18.5812 28.5107 19.0813L19.0814 28.5093C18.5825 29.0111 17.9036 29.2924 17.1961 29.2907ZM11.5387 8.87198C10.3318 8.87232 9.27561 9.68323 8.96352 10.8491C8.65143 12.0149 9.16128 13.2451 10.2066 13.8483C11.2519 14.4516 12.5721 14.2775 13.4254 13.424L13.4347 13.416L13.4441 13.4066L13.4334 13.416C14.1913 12.6514 14.4151 11.5061 14.0008 10.5124C13.5865 9.51872 12.6153 8.87165 11.5387 8.87198Z" fill="white"/>
</svg>
