<svg width="16" height="16" viewBox="0 0 16 16" fill="none" xmlns="http://www.w3.org/2000/svg">
<path fill-rule="evenodd" clip-rule="evenodd" d="M9.71251 0C9.75938 0 9.82813 0.03125 9.94063 0.140625L9.93751 1.29062C9.93751 2.39375 9.93438 2.44062 9.87501 2.5C9.84063 2.53437 9.77188 2.5625 9.71876 2.5625C9.66563 2.5625 9.59688 2.53437 9.56251 2.5C9.50313 2.44062 9.50001 2.39375 9.49688 1.3C9.49376 0.178125 9.49376 0.1625 9.56251 0.08125C9.60313 0.03125 9.65938 0 9.71251 0ZM9.49063 3.62812C9.61563 3.62812 9.85626 3.64062 10.0219 3.65625C10.1906 3.675 10.4625 3.725 10.625 3.76562C10.7875 3.80625 11.0344 3.88437 11.1719 3.93437C11.3094 3.9875 11.5469 4.10312 11.7031 4.19062C11.8563 4.27812 12.0875 4.425 12.2094 4.51875C12.3344 4.6125 12.5469 4.79687 12.6781 4.93125C12.8125 5.0625 12.9875 5.25625 13.0656 5.35937C13.1438 5.4625 13.2719 5.64687 13.3438 5.76562C13.4188 5.88437 13.5188 6.075 13.5719 6.1875C13.6219 6.3 13.7031 6.50312 13.75 6.64062C13.8 6.77812 13.8625 7.00312 13.8906 7.14062C13.9188 7.27812 13.9531 7.54062 13.9719 7.72812C13.9906 7.94687 13.9875 8.19062 13.9688 8.42812C13.95 8.63125 13.9063 8.925 13.8688 9.07812C13.8344 9.23125 13.7563 9.4875 13.6969 9.64062C13.6375 9.79375 13.5344 10.0281 13.4625 10.1562C13.3938 10.2844 13.2625 10.4969 13.1719 10.625C13.0813 10.7531 12.9094 10.9625 12.7938 11.0906C12.675 11.2187 12.4719 11.4062 12.3438 11.5094C12.2156 11.6125 12.0344 11.7437 11.9438 11.8C11.8563 11.8594 11.6594 11.9656 11.5063 12.0406C11.3563 12.1156 11.15 12.2062 11.0469 12.2437C10.9438 12.2781 10.7813 12.3312 10.6875 12.3562C10.5938 12.3812 10.3813 12.425 10.2188 12.4531C10.0563 12.4781 9.75313 12.5 9.54688 12.5C9.34063 12.5 9.05313 12.4781 8.90626 12.4562C8.75938 12.4312 8.55001 12.3875 8.43751 12.3594C8.32501 12.3312 8.12188 12.2656 7.98438 12.2156C7.84688 12.1625 7.61563 12.0594 7.46876 11.9812C7.32188 11.9031 7.09063 11.7594 6.95626 11.6625C6.81876 11.5656 6.58126 11.3562 6.42501 11.2C6.26876 11.0437 6.05938 10.8062 5.96251 10.6687C5.86563 10.5344 5.70938 10.275 5.61563 10.0937C5.52188 9.9125 5.40001 9.6375 5.35001 9.48437C5.29688 9.33125 5.22813 9.08437 5.19688 8.9375C5.15313 8.73125 5.14063 8.53125 5.14063 8.0625C5.14063 7.5875 5.15313 7.39375 5.19688 7.1875C5.23126 7.04062 5.30313 6.78125 5.36251 6.60937C5.42188 6.4375 5.53438 6.17812 5.61251 6.03125C5.69063 5.88437 5.82188 5.66875 5.90001 5.55C5.98126 5.43125 6.13126 5.24062 6.23438 5.125C6.33751 5.00937 6.51251 4.83437 6.62501 4.7375C6.73751 4.6375 6.96251 4.46875 7.12501 4.35937C7.28751 4.25312 7.51876 4.11875 7.64063 4.0625C7.75938 4.00937 7.94376 3.93125 8.04688 3.89375C8.15001 3.85312 8.36251 3.79062 8.51563 3.75625C8.66876 3.71875 8.90313 3.675 9.03126 3.65937C9.15938 3.64687 9.36876 3.63125 9.49063 3.62812ZM8.57813 4.25312C8.44063 4.2875 8.20938 4.36562 8.06251 4.42812C7.91563 4.4875 7.69688 4.59375 7.57813 4.6625C7.45626 4.73437 7.27501 4.85625 7.17188 4.93437C7.06876 5.0125 6.89376 5.16875 6.77813 5.28125C6.66563 5.39375 6.49063 5.59687 6.38751 5.73437C6.28751 5.87187 6.14376 6.09687 6.07188 6.23437C6.00001 6.37187 5.91251 6.5625 5.87501 6.65625C5.84063 6.75 5.77501 6.96875 5.73126 7.14062C5.66876 7.38125 5.64688 7.5625 5.63438 7.92187C5.62188 8.2625 5.63126 8.47187 5.66876 8.6875C5.69376 8.85 5.75938 9.11875 5.81251 9.28125C5.86563 9.44375 5.97813 9.7125 6.06251 9.875C6.14688 10.0375 6.30626 10.2906 6.41563 10.4375C6.52501 10.5844 6.71876 10.8 6.84688 10.9187C6.97501 11.0375 7.16251 11.1937 7.26563 11.2656C7.36876 11.3406 7.57188 11.4656 7.71876 11.5437C7.86563 11.6219 8.10313 11.725 8.25001 11.7781C8.39688 11.8281 8.62813 11.8937 8.76563 11.9219C8.90313 11.95 9.13751 11.9812 9.29063 11.9937L9.56251 12.0156V4.125C9.38126 4.13125 9.21563 4.14687 9.07813 4.1625C8.94063 4.17812 8.71563 4.21875 8.57813 4.25312ZM4.25626 9.47187C4.34688 9.46875 4.38751 9.48437 4.42188 9.5375C4.44688 9.57812 4.46876 9.64687 4.46876 9.69375C4.46876 9.75 4.44063 9.80312 4.39688 9.83437C4.35626 9.86562 3.84688 10.0437 3.26251 10.2312C2.28438 10.5469 2.19688 10.5687 2.12813 10.5281C2.08438 10.5031 2.03751 10.4437 2.02188 10.3937C1.99688 10.3219 2.00313 10.2906 2.05313 10.2219C2.10626 10.1531 2.27813 10.0875 3.12813 9.80625C3.68438 9.625 4.19376 9.475 4.25626 9.47187ZM9.57501 13.4375C9.63438 13.4344 9.69688 13.4625 9.73438 13.5031C9.79376 13.5656 9.79688 13.6187 9.80626 14.6531C9.81563 15.5844 9.80938 15.75 9.76876 15.85C9.73438 15.9344 9.69376 15.975 9.63438 15.9875C9.58438 15.9969 9.51563 15.9906 9.47813 15.9719C9.43438 15.9531 9.39376 15.8875 9.37188 15.8187C9.35313 15.7437 9.34376 15.3219 9.35001 14.6375C9.35938 13.6406 9.36251 13.5656 9.41876 13.5031C9.45313 13.4625 9.51563 13.4375 9.57501 13.4375ZM5.13126 1.4375C5.16251 1.4375 5.22813 1.475 5.28126 1.525C5.33126 1.57187 5.64688 1.99062 5.98438 2.45312C6.44688 3.09375 6.59376 3.31875 6.59376 3.39062C6.59376 3.44375 6.57188 3.50937 6.54063 3.54062C6.50938 3.57187 6.44063 3.59687 6.39063 3.59687C6.32813 3.59687 6.27188 3.56875 6.21563 3.50937C6.17188 3.4625 5.87501 3.0625 5.55626 2.625C5.24063 2.1875 4.96251 1.79687 4.94376 1.75625C4.92188 1.71562 4.91563 1.65312 4.92813 1.60312C4.94376 1.55937 4.98126 1.50312 5.01563 1.47812C5.05001 1.45625 5.10313 1.4375 5.13126 1.4375ZM2.27188 5.31562C2.32188 5.31562 2.83126 5.475 3.40626 5.66562C4.40001 5.99687 4.45626 6.02187 4.49688 6.10937C4.53438 6.19062 4.53438 6.21562 4.49688 6.28125C4.47188 6.325 4.41563 6.37187 4.37501 6.3875C4.31251 6.40937 4.07188 6.34375 3.25001 6.07812C2.58126 5.8625 2.17813 5.71875 2.13126 5.675C2.09063 5.6375 2.06251 5.57187 2.06251 5.525C2.06251 5.475 2.09063 5.40937 2.12501 5.375C2.15938 5.34062 2.22501 5.3125 2.27188 5.31562ZM6.28438 12.3125C6.34688 12.3125 6.39376 12.3406 6.43751 12.3969C6.47501 12.4469 6.50313 12.5094 6.50001 12.5375C6.50001 12.5687 6.21251 12.9906 5.85938 13.475C5.50626 13.9625 5.18438 14.3844 5.14688 14.4156C5.10938 14.4469 5.04688 14.4719 5.00626 14.4687C4.96876 14.4687 4.90938 14.4406 4.87501 14.4062C4.84063 14.3719 4.81251 14.3031 4.81251 14.25C4.81251 14.1781 4.95626 13.9562 5.44063 13.2875C5.78438 12.8125 6.09688 12.3969 6.13126 12.3656C6.16563 12.3375 6.23438 12.3125 6.28438 12.3125Z" fill="black"/>
</svg>
